<svg xmlns="http://www.w3.org/2000/svg" viewBox="0 0 496 496"><path d="M432 48v176h64V48h-64zm48 160h-32V64h32v144zM352 129c-5.1-4.6-10.5-9-16-13v-4h-6c-31.2-20.6-68-32-106-32h-8v200h200v-8a192 192 0 0 0-6.2-48h6.2V80h-64v49zM232 264V96.2a176 176 0 0 1 65 15.8h-25v112h64v-87.5c5.6 4.7 11 9.6 16 14.9V224h41.2c3.7 13 6 26.4 6.6 40H232zm88-136v80h-32v-80h32zm48-32h32v112h-32V96zM62.3 310.4l68-68 11.4 11.2-68 68zM96 248a24 24 0 1 0-48 0 24 24 0 0 0 48 0zm-32 0a8 8 0 1 1 16 0 8 8 0 0 1-16 0zM136 288a24 24 0 1 0 0 48 24 24 0 0 0 0-48zm0 32a8 8 0 1 1 0-16 8 8 0 0 1 0 16z"/><path d="M350.9 411.5A190.4 190.4 0 0 0 384 304v-8H200V112h-8c-7.9 0-16 .7-24 1.7V0H0v112h100.7l15.6 15.6C46.3 157.7 0 227 0 304c0 105.9 86.1 192 192 192 46.4 0 90.6-16.8 125.6-47.1l24.7 24.8a25 25 0 1 0 35.4-35.4l-26.8-26.8zM107.3 96H16V16h136v124.7L107.3 96zM192 480c-97 0-176-79-176-176 0-72.7 45-138 112.6-164l39.4 39.3v-49.5c5.4-.8 10.7-1.4 16-1.6V312h183.8a174.2 174.2 0 0 1-28.4 88l-12.8-12.7A47.7 47.7 0 0 0 280 328a48 48 0 1 0 11.3 94.6l15 15A175 175 0 0 1 192 480zm120-104a32 32 0 1 1-64 0 32 32 0 0 1 64 0zm54.3 86.3a9 9 0 0 1-12.6 0L307 415.7c5-3.4 9.3-7.7 12.7-12.7l46.6 46.7a9 9 0 0 1 0 12.6z"/><path d="M32 32h104v16H32zM32 64h104v16H32zM272 368h16v16h-16zM200 368h16v16h-16zM168 368h16v16h-16zM136 368h16v16h-16z"/></svg>