<svg xmlns="http://www.w3.org/2000/svg" viewBox="0 0 496 496"><path d="M453.9 250.6l-21.9-22-48 48v-32.4l-40-32V0H40v212.2l-40 32V496h384v-3.7a144 144 0 0 0 69.9-241.7zm-21.9.7l10.6 10.6 2 2.2-44.6 44.6-12.7-12.7 44.7-44.7zm-48 64l31 31a8 8 0 0 1 0 11.4l-31 31v-73.4zm-16-16v105.4L357.7 415a8 8 0 0 1-11.4 0L296 364.7l-8.2 8.2-36.5-27L368 263.3v29.3l-3.3 3.3 3.3 3.3zM308.7 400L264 444.6l-2.2-2-10.6-10.6 44.7-44.7 12.7 12.7zM344 232.6l18.7 15-18.7 13.2v-28.2zM56 272V16h272v256h.1l-90.4 63.8-45.7-33.7-45.7 33.7L55.9 272h.1zm-16-39.4v28.2l-18.7-13.2 18.7-15zm-24 30.8L132.7 346 16 432V263.4zM16 480v-28l176-130 84.4 62.3-47.7 47.7 21.9 21.9a144.1 144.1 0 0 0 35.8 26.1H16zm363-2.8l-4.3.7h-.3a142.7 142.7 0 0 1-22.2 2.1c-27.7 0-54-8.9-75.8-25.1l43.6-43.6 15 15a24 24 0 0 0 34 0l57.3-57.3a24 24 0 0 0 0-34l-15-15 43.6-43.6a126.7 126.7 0 0 1 25.1 75.8 128 128 0 0 1-101 125z"/><path d="M312 32H72v144h240V32zm-16 128H88V48h208v112zM72 192h240v16H72zM72 224h240v16H72zM296 256h16v16h-16zM264 256h16v16h-16zM72 256h176v16H72z"/></svg>