<svg xmlns="http://www.w3.org/2000/svg" viewBox="0 0 496 496"><path d="M295 349.5A112 112 0 0 0 360 248c0-16.3-3.8-32.4-10.7-47.2a56 56 0 0 0-41.6-88.6 72 72 0 1 0-119.5-.2h-2.9a27 27 0 0 1-25.7-18.5l-1.8-5.5H136v80c0 12.2 4 23.6 10.7 32.8-6.9 14.8-10.7 31-10.7 47.2a112 112 0 0 0 65 101.5c-60.5 17-105 72.6-105 138.5v8h304v-8c0-65.9-44.5-121.4-105-138.5zm11 20.8c9.9 4.2 19.1 9.6 27.6 16l-30.2 54.3-8.5-12.6-13.5-27 24.6-30.7zM268.2 392h-40.4L206 364.7c10.8-3 22.2-4.7 34-4.7h16c11.8 0 23.2 1.7 34 4.7L268.2 392zM248 16a56 56 0 1 1-.1 112.1A56 56 0 0 1 248 16zm-96 96.3a43 43 0 0 0 33.3 15.7h17.5a71.6 71.6 0 0 0 90.4 0H304a40 40 0 0 1 0 80H192c-22 0-40-18-40-40v-55.7zm0 135.7c0-12.2 2.3-24 6.7-35 9.3 6.8 20.8 11 33.3 11h112c12.5 0 24-4.2 33.3-11A96.1 96.1 0 1 1 152 248zm38 122.3l24.6 30.7-13.5 27-8.5 12.6-30.2-54.3c8.5-6.4 17.7-11.8 27.6-16zM209.4 480h-97.2c2-32.4 16.2-61.4 38-83l41.2 74.3 17.8-26.7 6.1 6-5.9 29.4zm60.8 0h-44.4l6.9-34.6-15-15L229 408h38.2l11.2 22.4-15 15 7 34.6zm16.4 0l-6-29.4 6.2-6 17.8 26.8L346 397a127.5 127.5 0 0 1 37.8 83h-97.1zM392.4 232l10.7-32H464v-16h-55.6l7.2-21.5-15.2-5-24.8 74.5 24.8 74.5 15.2-5-7.2-21.5H496v-16h-92.9z"/><path d="M95.6 157.5l-15.2 5 7.2 21.5H0v16h92.9l10.7 32-10.7 32H0v16h87.6l-7.2 21.5 15.2 5 24.8-74.5zM480 184h16v16h-16zM235 104l58.2-50-10.4-12L229 88h-.7l-13.6-20.4-13.4 8.8 18.4 27.6zM416 224h16v16h-16zM448 224h16v16h-16z"/><path d="M64 224h16v16H64zM32 224h16v16H32z"/></svg>