<svg xmlns="http://www.w3.org/2000/svg" viewBox="0 0 496 496"><path d="M72 232h16v16H72zM56 208h16v16H56zM128 248h16v16h-16zM160 232h16v16h-16zM392 464a48 48 0 1 0-.1-96.1 48 48 0 0 0 .1 96.1zm-30.7-56.5L374 415l8-13.8-12.9-7.5c4-4 9.1-7 14.8-8.5V400h16v-14.9a32 32 0 0 1 14.8 8.5l-13 7.5 8 13.8 13-7.4a32 32 0 0 1 1.2 8.5c0 3-.5 5.8-1.3 8.5L410 417l-8 13.8 12.9 7.5c-4 4-9.1 7-14.8 8.5V432h-16v14.9a32 32 0 0 1-14.8-8.5l13-7.5-8-13.8-13 7.4a32 32 0 0 1-1.2-8.5c0-3 .5-5.8 1.3-8.5z"/><path d="M480 480V336h-16v-48h-24v-91.3a55.5 55.5 0 0 0-18-76L349.5 40a56 56 0 0 0-100.5-14.3L155.9 114a41.9 41.9 0 0 0-6.5 53.2l-43 43 11.3 11.4 42.8-42.9a41.8 41.8 0 0 0 53-3.2l70.4-65c2.4.6 4.9 1 7.4 1.2l45 50.6a55 55 0 0 0 7.7 34.3V288h-24v48h-16v144H160V336h-16v-16h16v-16h-16.8a40 40 0 0 0-39.2-32H32v32H16v16h16v16H16v144H0v16h496v-16h-16zM48 288h56a24 24 0 0 1 22.5 16H48v-16zm0 32h80v16H48v-16zm96 80h-16v16h16v64H32v-64h80v-16H32v-48h112v48zm288-232a40 40 0 1 1-80 0 40 40 0 0 1 80 0zm-8 45.9V288h-64v-74.1a55.6 55.6 0 0 0 64 0zm-221.3-50a26 26 0 0 1-44-19.6 26 26 0 0 1 8.2-18.6L240 56.2a56 56 0 0 0 27.5 47.9l-64.8 59.7zM295.9 96a40 40 0 1 1 .1 0zm45.5 48L311 110a56.1 56.1 0 0 0 40.1-44.3l41.6 46.4h-.7a56 56 0 0 0-50.6 32zM336 304h112v32H336v-32zm128 176H320V352h144v128z"/></svg>