<svg xmlns="http://www.w3.org/2000/svg" viewBox="0 0 496 496"><path d="M376 164c0-70.6-57.4-128-128-128S120 93.4 120 164s57.4 128 128 128 128-57.4 128-128zM248 276a112.1 112.1 0 0 1 0-224 112.1 112.1 0 0 1 0 224zM392 156h16v16h-16zM424 156h16v16h-16zM56 156h16v16H56zM88 156h16v16H88zM240 308h16v16h-16zM240 4h16v16h-16z"/><path d="M390 141.3l15.8-2.6A159.2 159.2 0 0 0 273.3 6.2L270.8 22A143.3 143.3 0 0 1 390 141.3zM225.3 22l-2.6-15.8A159.2 159.2 0 0 0 90.2 138.7l15.8 2.5A143.3 143.3 0 0 1 225.3 22zM225.3 306A143.3 143.3 0 0 1 106 186.7l-15.8 2.6a159.2 159.2 0 0 0 132.5 132.5l2.6-15.8zM390 186.7A143.3 143.3 0 0 1 270.7 306l2.6 15.8a159.2 159.2 0 0 0 132.5-132.5l-15.8-2.6zM464 412.8V380H256v-40h-16v40H32v32.8a40 40 0 1 0 16 0V396h192v16.8a40 40 0 1 0 16 0V396h192v16.8a40 40 0 1 0 16 0zM64 452a24 24 0 1 1-48 0 24 24 0 0 1 48 0zm208 0a24 24 0 1 1-48 0 24 24 0 0 1 48 0zm184 24a24 24 0 1 1 0-48 24 24 0 0 1 0 48zM424 220h16v80h-16zM424 316h16v16h-16zM392 276h16v40h-16zM392 332h16v16h-16zM360 316h16v16h-16z"/><path d="M360 348h16v16h-16zM56 220h16v80H56zM56 316h16v16H56zM88 276h16v40H88zM88 332h16v16H88zM120 316h16v16h-16zM120 348h16v16h-16zM260 84h-4V68h-16v16h-4a44 44 0 0 0 0 88h24a28 28 0 0 1 0 56h-24a28 28 0 0 1-28-28v-4h-16v4a44 44 0 0 0 44 44h4v16h16v-16h4a44 44 0 0 0 0-88h-24a28 28 0 0 1 0-56h24a28 28 0 0 1 28 28v4h16v-4a44 44 0 0 0-44-44z"/></svg>