<svg xmlns="http://www.w3.org/2000/svg" viewBox="0 0 504.9 504.9"><path d="M188.4 61h16v80h-16zM300.4 61h16v80h-16z"/><path d="M252.4 22.1l84.2 46 7.7-14.1-91.9-50.1-91.8 50 7.7 14.1zM164.4 317a40 40 0 1 0 .1 80 40 40 0 0 0 0-80zm0 64a24 24 0 1 1 .1-48 24 24 0 0 1 0 48zM340.4 397a40 40 0 1 0 0-80 40 40 0 0 0 0 80zm0-64a24 24 0 1 1 0 48 24 24 0 0 1 0-48zM196.4 441.7V501h16v-52.7l40-40 40 40V501h16v-59.3l-56-56z"/><path d="M427.5 349c-6.6 0-13 2.7-17.7 7.3L363.2 403a47.7 47.7 0 0 0-45.6 0l-46.5-46.6c-4.7-4.6-11.1-7.3-17.7-7.3h-2c-6.5 0-13 2.7-17.6 7.3L187.2 403a47.7 47.7 0 0 0-45.6 0l-46.5-46.6a25 25 0 0 0-35.3 35.3l56.6 56.7V501h16v-59.3l-61.3-61.4a9 9 0 0 1 12.7-12.7l56 56 5.5-4.1a31.8 31.8 0 0 1 38.2 0l5.6 4.2 56-56a9 9 0 0 1 6.4-2.7h2a9 9 0 0 1 6.3 2.6l56 56 5.5-4.1a31.8 31.8 0 0 1 38.2 0l5.6 4.2 56-56a9 9 0 0 1 12.7 12.7l-61.4 61.3V501h16v-52.7l56.7-56.7a25 25 0 0 0-17.7-42.6zM164.4 229a40 40 0 1 0 0-80 40 40 0 0 0 0 80zm0-64a24 24 0 1 1 0 48 24 24 0 0 1 0-48zM340.4 229a40 40 0 1 0 0-80 40 40 0 0 0 0 80zm0-64a24 24 0 1 1 0 48 24 24 0 0 1 0-48zM196.4 273.7V333h16v-52.7l40-40 40 40V333h16v-59.3l-56-56z"/><path d="M427.5 181c-6.6 0-13 2.7-17.7 7.3L363.2 235a47.7 47.7 0 0 0-45.6 0l-46.5-46.6c-4.7-4.6-11.1-7.3-17.7-7.3h-2c-6.5 0-13 2.7-17.6 7.3L187.2 235a47.7 47.7 0 0 0-45.6 0l-46.5-46.6a25 25 0 0 0-35.3 35.3l56.6 56.7V333h16v-59.3l-61.3-61.4a9 9 0 0 1 12.7-12.7l56 56 5.5-4.1a31.8 31.8 0 0 1 38.2 0l5.6 4.2 56-56a9 9 0 0 1 6.4-2.7h2a9 9 0 0 1 6.3 2.6l56 56 5.5-4.1a31.8 31.8 0 0 1 38.2 0l5.6 4.2 56-56a9 9 0 0 1 12.7 12.7l-61.4 61.3V333h16v-52.7l56.7-56.7a25 25 0 0 0-17.7-42.6zM28.4 141h16v160h-16zM108.4 141h16v24h-16z"/><path d="M144 147.7l8.9-13.4-76.5-51-76.4 51 8.9 13.4 67.5-45zM460.4 101h16v152h-16zM380.4 101h16v64h-16z"/><path d="M428.4 43.4l-76.4 51 8.9 13.3 67.5-45 67.6 45 8.9-13.4zM28.4 317h16v16h-16zM460.4 269h16v16h-16zM460.4 301h16v16h-16zM244.4 45h16v64h-16zM244.4 125h16v16h-16zM244.4 157h16v16h-16z"/></svg>