<svg xmlns="http://www.w3.org/2000/svg" viewBox="0 0 502.6 502.6"><path d="M467.3 467.5h24v-128h-24V129.3l12 4 23.3-46.5L251.3 3.1 0 86.8l23.2 46.4 12-3.9v354.2h-32v16h496v-16h-32v-16zm8-112v96h-8v-96h8zm-259.7 128H107.3v-216h80v184h-64v16h80v-232h16v180.3a47.8 47.8 0 0 0-3.7 67.7zm35.7 0a32 32 0 1 1 0-64 32 32 0 0 1 0 64zm45.6-173.7l-11.3 11.4 10.4 10.3-31 31 32.4-119h92.2l29.6 82.9-97.7 45.1h-43l28.8-28.7 10.3 10.4 11.3-11.4-32-32zm-60.4 96l-1.2.5V267.5h39l-37.8 138.3zm50.5 77.7a48 48 0 0 0 9.5-16H374a48 48 0 0 0 9.5 16H287zm132.3 0a32 32 0 1 1 0-64 32 32 0 0 1 0 64zm32-67.7a47.8 47.8 0 0 0-80 35.7h-72a48 48 0 0 0-45.6-47.9l4.4-16.1h67l99.5-46 5 14h21.7v60.3zm0-76.3h-10.4l-34.3-96h12.7v-16h-152v16h13.5l-2.2 8h-43.3v-16h16v-16h-80v16h16v16h-96v232h-40v-288h400v144zm0-160h-400v-55.3l200-64.3 200 64.3v55.3zm-200-136.4l-220 70.7-8.7-17.6 228.7-76.3L480 96.2l-8.8 17.6-220-70.7z"/><path d="M243.3 91.5h16v16h-16zM275.3 91.5h16v16h-16zM211.3 91.5h16v16h-16z"/></svg>