<svg xmlns="http://www.w3.org/2000/svg"  viewBox="0 0 100 100"><path d="M50 3.84a46.16 46.16 0 1 0 0 92.32 46.16 46.16 0 0 0 0-92.32zm24.8 63.68c-1.96 1.23-9.97 1.6-11.9.19a25.92 25.92 0 0 1-2.96-2.66c-.65-.64-1.38-.95-1.94-1.65-.45-.57-.76-1.25-1.24-1.81-.8-.95-2.04-1.75-3.02-.6-1.48 1.74.23 5.16-1.74 6.46a3.2 3.2 0 0 1-2.15.5l-1.83.08c-1.07.02-2.77.03-3.99-.19-1.36-.25-2.49-.99-3.72-1.54a17.62 17.62 0 0 1-6.26-4.4c-4.61-5.33-10.8-12.66-13.21-19.36-.5-1.38-1.8-4.1-.57-5.29 1.69-1.22 9.96-1.57 11.25.33.53.77.86 1.9 1.23 2.76.46 1.1.71 2.12 1.43 3.08.64.85 1.11 1.71 1.6 2.65.56 1.05 1.09 2.06 1.76 3.03.46.65 1.67 1.96 2.44 2.06 1.86.24 1.75-4.3 1.6-5.4a21.4 21.4 0 0 1-.12-3.3c.03-.92.11-2.22-.44-2.97-.89-1.23-2.88-.31-3.03-1.97.33-.47.26-.88 2.45-1.6a9.1 9.1 0 0 1 3.98-.46c2.32.19 4.78-.44 7.02.3 2.14.73 1.8 3.77 1.74 5.6-.1 2.48 0 4.9 0 7.43 0 1.15-.05 2.27 1.35 2.18 1.31-.09 1.45-1.2 2.07-2.1.88-1.28 1.68-2.57 2.56-3.84 1.2-1.71 1.56-3.63 2.69-5.39.4-.63.75-1.96 1.37-2.46.47-.38 1.36-.18 1.93-.18h1.36c1.03 0 2.09 0 3.15.03 1.53.05 3.25-.3 4.77-.08 6.55.92-8.24 14.93-7.47 17.44.53 1.72 3.9 3.66 5.12 5.07 1.62 1.88 6.6 5.63 2.73 8.06z"/></svg>