<svg xmlns="http://www.w3.org/2000/svg" viewBox="0 0 489 488"><title>bg-welcome</title><path d="M436.5,208.2H52.5v51.4l160,160.1v76.7h64V419.6l160-160.1Zm-16,40h-72v16h60.7L260.5,413v67.4h-32V413L79.8,264.2H332.5v-16H68.5v-24H420.5Z" transform="translate(0 -10)" fill="#0ad7d5"/><rect x="68.5" y="366.3" width="16" height="80.06" fill="#ff2e63"/><rect x="68.5" y="334.3" width="16" height="16.01" fill="#ff2e63"/><rect x="108.5" y="334.3" width="16" height="16.01" fill="#ff2e63"/><rect x="444.5" y="302.2" width="16" height="16.01" fill="#ff2e63"/><polygon points="124.5 436.7 124.5 366.3 108.5 366.3 108.5 447.4 76.5 468.8 44.5 447.4 44.5 318.3 28.4 318.3 28.4 436.7 8.9 423.7 0 437 76.5 488 152.9 437 144 423.7 124.5 436.7" fill="#ff2e63"/><rect x="28.4" y="286.2" width="16" height="16.01" fill="#ff2e63"/><polygon points="460.6 436.7 460.6 366.3 460.6 334.3 444.5 334.3 444.5 366.3 444.5 447.4 412.5 468.8 380.5 447.4 380.5 382.3 364.5 382.3 364.5 436.7 345 423.7 336.1 437 412.5 488 489 437 480.1 423.7 460.6 436.7" fill="#ff2e63"/><rect x="404.5" y="366.3" width="16" height="80.06" fill="#ff2e63"/><rect x="404.5" y="334.3" width="16" height="16.01" fill="#ff2e63"/><rect x="364.5" y="350.3" width="16" height="16.01" fill="#ff2e63"/><path d="M409.5,208.2V80.1h-176V74h112V48h-112V42h112V16h-138v74h14.2l16,16H383.5v6H243.7l26,26H383.5v6H275.8l11.8,11.8v14.3h96v6h-96v32h-6v-48h-176v-6h112v-26h-112v-6h112v-26H79.5V208.2h-6V90.1h128V10H349.8l65.8,65.8V208.2Zm-186-54h53.8l-42-42H223.5ZM351.5,74h53.8L351.5,20.3ZM105.5,192.1v-6h150v6Z" transform="translate(0 -10)" fill="#fff"/></svg>