<svg xmlns="http://www.w3.org/2000/svg" viewBox="0 0 489 498"><path fill="#0ad7d5" d="M436.5 208.2h-384v51.4l160 160.1v76.7h64v-76.8l160-160.1zm-16 40h-72v16h60.7L260.5 413v67.4h-32V413L79.8 264.2h252.7v-16h-264v-24h352z"/><path fill="#ff2e63" d="M68.5 376.3h16v80.1h-16zM68.5 344.3h16v16h-16zM108.5 344.3h16v16h-16zM444.5 312.2h16v16h-16z"/><path fill="#ff2e63" d="M124.5 446.7v-70.4h-16v81.1l-32 21.4-32-21.4V328.3H28.4v118.4l-19.5-13L0 447l76.5 51 76.4-51-8.9-13.3-19.5 13zM28.4 296.2h16v16h-16zM460.6 446.7V344.3h-16.1v113.1l-32 21.4-32-21.4v-65.1h-16v54.4l-19.5-13-8.9 13.3 76.4 51 76.5-51-8.9-13.3-19.5 13z"/><path fill="#ff2e63" d="M404.5 376.3h16v80.1h-16zM404.5 344.3h16v16h-16zM364.5 360.3h16v16h-16z"/><path fill="#fff" d="M84.5 96.1h128v16h-112v16h112v16h-112v16h176v48h16v-32h96v-16h-96v-11.3l-4.7-4.7h100.7v-16H271.8l-16-16h132.7v-16H239.8l-16-16h-11.3V16h128v16h-112v16h112v16h-112v16h176v128.2h16V68.7L351.8 0H196.5v80.1h-128v128.1h16zm144 32v-16h4.7l32 32h-36.7zm128-80.1V27.3L393.2 64h-36.7z"/><path fill="#fff" d="M100.5 176.1h160v16h-160z"/></svg>