<svg xmlns="http://www.w3.org/2000/svg" viewBox="0 0 1550 1525"><circle cx="1310.7" cy="25" r="25" fill="#ff2e63"/><circle cx="1525" cy="25" r="25" fill="#ff2e63"/><circle cx="25" cy="209.4" r="25" fill="#ff2e63"/><circle cx="1525" cy="209.4" r="25" fill="#ff2e63"/><circle cx="25" cy="393.8" r="25" fill="#ff2e63"/><circle cx="1525" cy="393.8" r="25" fill="#ff2e63"/><circle cx="25" cy="578.1" r="25" fill="#ff2e63"/><circle cx="239.3" cy="578.1" r="25" fill="#ff2e63"/><circle cx="453.6" cy="578.1" r="25" fill="#ff2e63"/><circle cx="1096.4" cy="578.1" r="25" fill="#ff2e63"/><circle cx="1310.7" cy="578.1" r="25" fill="#ff2e63"/><circle cx="1525" cy="578.1" r="25" fill="#ff2e63"/><circle cx="25" cy="762.5" r="25" fill="#ff2e63"/><circle cx="239.3" cy="762.5" r="25" fill="#ff2e63"/><circle cx="453.6" cy="762.5" r="25" fill="#ff2e63"/><circle cx="1096.4" cy="762.5" r="25" fill="#ff2e63"/><circle cx="1310.7" cy="762.5" r="25" fill="#ff2e63"/><circle cx="1525" cy="762.5" r="25" fill="#ff2e63"/><circle cx="25" cy="946.9" r="25" fill="#ff2e63"/><circle cx="239.3" cy="946.9" r="25" fill="#ff2e63"/><circle cx="453.6" cy="946.9" r="25" fill="#ff2e63"/><circle cx="1096.4" cy="946.9" r="25" fill="#ff2e63"/><circle cx="1310.7" cy="946.9" r="25" fill="#ff2e63"/><circle cx="1525" cy="946.9" r="25" fill="#ff2e63"/><circle cx="25" cy="1131.3" r="25" fill="#ff2e63"/><circle cx="239.3" cy="1131.3" r="25" fill="#ff2e63"/><circle cx="453.6" cy="1131.3" r="25" fill="#ff2e63"/><circle cx="1096.4" cy="1131.3" r="25" fill="#ff2e63"/><circle cx="1310.7" cy="1131.3" r="25" fill="#ff2e63"/><circle cx="1525" cy="1131.3" r="25" fill="#ff2e63"/><circle cx="25" cy="1315.6" r="25" fill="#ff2e63"/><circle cx="239.3" cy="1315.6" r="25" fill="#ff2e63"/><circle cx="453.6" cy="1315.6" r="25" fill="#ff2e63"/><circle cx="1096.4" cy="1315.6" r="25" fill="#ff2e63"/><circle cx="1310.7" cy="1315.6" r="25" fill="#ff2e63"/><circle cx="1525" cy="1315.6" r="25" fill="#ff2e63"/><circle cx="25" cy="1500" r="25" fill="#ff2e63"/><circle cx="239.3" cy="1500" r="25" fill="#ff2e63"/><circle cx="453.6" cy="1500" r="25" fill="#ff2e63"/><circle cx="667.9" cy="1500" r="25" fill="#ff2e63"/><circle cx="882.1" cy="1500" r="25" fill="#ff2e63"/><circle cx="1096.4" cy="1500" r="25" fill="#ff2e63"/><circle cx="1310.7" cy="1500" r="25" fill="#ff2e63"/><circle cx="1525" cy="1500" r="25" fill="#ff2e63"/><circle cx="25" cy="25" r="25" fill="#ff2e63"/><circle cx="239.3" cy="25" r="25" fill="#ff2e63"/><circle cx="453.6" cy="25" r="25" fill="#ff2e63"/><circle cx="667.9" cy="25" r="25" fill="#ff2e63"/><circle cx="882.1" cy="25" r="25" fill="#ff2e63"/><circle cx="1096.4" cy="25" r="25" fill="#ff2e63"/><circle cx="239.3" cy="209.4" r="75" fill="#08d9d6"/><circle cx="453.6" cy="209.4" r="75" fill="#08d9d6"/><circle cx="667.9" cy="209.4" r="75" fill="#08d9d6"/><circle cx="882.1" cy="209.4" r="75" fill="#08d9d6"/><circle cx="1096.4" cy="209.4" r="75" fill="#08d9d6"/><circle cx="1310.7" cy="209.4" r="75" fill="#08d9d6"/><circle cx="239.3" cy="393.8" r="67.5" fill="#08d9d6"/><circle cx="453.6" cy="393.8" r="67.5" fill="#08d9d6"/><circle cx="667.9" cy="393.8" r="67.5" fill="#08d9d6"/><circle cx="882.1" cy="393.8" r="67.5" fill="#08d9d6"/><circle cx="1096.4" cy="393.8" r="67.5" fill="#08d9d6"/><circle cx="1310.7" cy="393.8" r="67.5" fill="#08d9d6"/><circle cx="667.9" cy="578.1" r="60" fill="#08d9d6"/><circle cx="882.1" cy="578.1" r="60" fill="#08d9d6"/><circle cx="667.9" cy="762.5" r="52.5" fill="#08d9d6"/><circle cx="882.1" cy="762.5" r="52.5" fill="#08d9d6"/><circle cx="667.9" cy="946.9" r="45" fill="#08d9d6"/><circle cx="882.1" cy="946.9" r="45" fill="#08d9d6"/><circle cx="667.9" cy="1131.3" r="37.5" fill="#08d9d6"/><circle cx="882.1" cy="1131.3" r="37.5" fill="#08d9d6"/><circle cx="667.9" cy="1315.6" r="30" fill="#08d9d6"/><circle cx="882.1" cy="1315.6" r="30" fill="#08d9d6"/></svg>
