<svg
 xmlns="http://www.w3.org/2000/svg"
 xmlns:xlink="http://www.w3.org/1999/xlink"
 width="534px" height="728px">
<path fill-rule="evenodd"  fill="#808b92"
 d="M360.352,14.560 L361.630,13.602 L497.401,194.953 L496.123,195.911 L360.352,14.560 Z"/>
<path fill-rule="evenodd"  fill="#808b92"
 d="M357.399,13.388 L358.194,14.774 L113.007,155.381 L112.213,153.995 L357.399,13.388 Z"/>
<path fill-rule="evenodd"  fill="#808b92"
 d="M112.107,155.308 L113.113,154.067 L172.213,202.001 L171.207,203.243 L112.107,155.308 Z"/>
<path fill-rule="evenodd"  fill="#808b92"
 d="M171.060,202.158 L172.361,203.086 L53.361,370.056 L52.061,369.129 L171.060,202.158 Z"/>
<path fill-rule="evenodd"  fill="#808b92"
 d="M111.041,153.679 L112.582,154.099 L53.482,371.400 L51.940,370.980 L111.041,153.679 Z"/>
<path fill-rule="evenodd"  fill="#808b92"
 d="M53.389,370.400 L53.630,371.980 L6.510,379.170 L6.269,377.590 L53.389,370.400 Z"/>
<path fill-rule="evenodd"  fill="#808b92"
 d="M52.854,370.048 L54.166,369.136 L230.668,623.187 L229.356,624.099 L52.854,370.048 Z"/>
<path fill-rule="evenodd"  fill="#808b92"
 d="M228.568,623.314 L229.859,622.374 L296.147,713.448 L294.856,714.389 L228.568,623.314 Z"/>
<path fill-rule="evenodd"  fill="#808b92"
 d="M526.304,709.924 L526.320,711.522 L296.309,713.919 L296.292,712.321 L526.304,709.924 Z"/>
<path fill-rule="evenodd"  fill="#808b92"
 d="M528.291,567.039 L529.126,568.401 L295.919,711.404 L295.084,710.042 L528.291,567.039 Z"/>
<path fill-rule="evenodd"  fill="#808b92"
 d="M231.609,609.266 C239.548,609.266 245.984,615.702 245.984,623.641 C245.984,631.580 239.548,638.016 231.609,638.016 C223.670,638.016 217.234,631.580 217.234,623.641 C217.234,615.702 223.670,609.266 231.609,609.266 Z"/>
<path fill-rule="evenodd"  fill="#808b92"
 d="M294.703,698.734 C302.642,698.734 309.078,705.174 309.078,713.117 C309.078,721.061 302.642,727.500 294.703,727.500 C286.764,727.500 280.328,721.061 280.328,713.117 C280.328,705.174 286.764,698.734 294.703,698.734 Z"/>
<path fill-rule="evenodd"  fill="#808b92"
 d="M524.719,703.531 C529.128,703.531 532.703,707.109 532.703,711.523 C532.703,715.937 529.128,719.516 524.719,719.516 C520.309,719.516 516.734,715.937 516.734,711.523 C516.734,707.109 520.309,703.531 524.719,703.531 Z"/>
<path fill-rule="evenodd"  fill="#808b92"
 d="M528.711,564.531 C531.356,564.531 533.500,566.675 533.500,569.320 C533.500,571.965 531.356,574.109 528.711,574.109 C526.066,574.109 523.922,571.965 523.922,569.320 C523.922,566.675 526.066,564.531 528.711,564.531 Z"/>
<path fill-rule="evenodd"  fill="#808b92"
 d="M53.508,357.609 C60.562,357.609 66.281,363.332 66.281,370.391 C66.281,377.450 60.562,383.172 53.508,383.172 C46.453,383.172 40.734,377.450 40.734,370.391 C40.734,363.332 46.453,357.609 53.508,357.609 Z"/>
<path fill-rule="evenodd"  fill="#808b92"
 d="M7.187,371.188 C11.157,371.188 14.375,374.405 14.375,378.375 C14.375,382.345 11.157,385.562 7.187,385.562 C3.218,385.562 -0.000,382.345 -0.000,378.375 C-0.000,374.405 3.218,371.188 7.187,371.188 Z"/>
<path fill-rule="evenodd"  fill="#808b92"
 d="M112.609,145.906 C117.899,145.906 122.187,150.198 122.187,155.492 C122.187,160.786 117.899,165.078 112.609,165.078 C107.320,165.078 103.031,160.786 103.031,155.492 C103.031,150.198 107.320,145.906 112.609,145.906 Z"/>
<path fill-rule="evenodd"  fill="#808b92"
 d="M170.109,194.641 C174.959,194.641 178.891,198.572 178.891,203.422 C178.891,208.272 174.959,212.203 170.109,212.203 C165.260,212.203 161.328,208.272 161.328,203.422 C161.328,198.572 165.260,194.641 170.109,194.641 Z"/>
<path fill-rule="evenodd"  fill="#808b92"
 d="M361.789,0.500 C369.732,0.500 376.172,6.939 376.172,14.883 C376.172,22.826 369.732,29.266 361.789,29.266 C353.846,29.266 347.406,22.826 347.406,14.883 C347.406,6.939 353.846,0.500 361.789,0.500 Z"/>
<path fill-rule="evenodd"  fill="#808b92"
 d="M496.758,185.047 C503.372,185.047 508.734,190.412 508.734,197.031 C508.734,203.650 503.372,209.016 496.758,209.016 C490.143,209.016 484.781,203.650 484.781,197.031 C484.781,190.412 490.143,185.047 496.758,185.047 Z"/>
</svg>
